# xmcd CD database file
#
# Track frame offsets:
#	150
#	13772
#	26698
#	38867
#	50196
#	64718
#	78822
#	92974
#	106989
#	118870
#	131978
#	145098
#	157653
#	171734
#	184138
#	194338
#	205136
#	216848
#	230866
#	244826
#
# Disc length: 3419 seconds
#
# Revision: 0
# Processed by: cddbd v1.5.2PL0 Copyright (c) Steve Scherf et al.
# Submitted via: CDex 1.70beta2
#
DISCID=2b0d5914
DTITLE=Stan Kenton - Swing House CD1
DYEAR=1900
DGENRE=Jazz
TTITLE0=Taboo
TTITLE1=Adios
TTITLE2=The Nango
TTITLE3=Reed Rapture
TTITLE4=El Choclo
TTITLE5=Do Nothin' Till You Hear From Me
TTITLE6=Eager Beaver
TTITLE7=I'm Going Mad For Pad
TTITLE8=Balboa Bash
TTITLE9=Travellin' Man
TTITLE10=Around The Town
TTITLE11=I Want A Grown-Up Man
TTITLE12=Southern Scandal
TTITLE13=It's Been A Long Long Time
TTITLE14=That's The Stuff You Gotta Watch
TTITLE15=Ride On
TTITLE16=Just A-Sittin' And A-Rockin'
TTITLE17=I Baan Down In Texas
TTITLE18=Say It Isn't So
TTITLE19=Shoo Fly Pie And Apple Pan Dowdy
EXTD=
EXTT0=
EXTT1=
EXTT2=
EXTT3=
EXTT4=
EXTT5=
EXTT6=
EXTT7=
EXTT8=
EXTT9=
EXTT10=
EXTT11=
EXTT12=
EXTT13=
EXTT14=
EXTT15=
EXTT16=
EXTT17=
EXTT18=
EXTT19=
PLAYORDER=
